<svg width="20" height="20" viewBox="0 0 20 20" fill="none" xmlns="http://www.w3.org/2000/svg">
<path d="M16.1875 14.1875H3.8125V15.875C3.8125 16.1914 4.05859 16.4375 4.375 16.4375H15.625C15.9062 16.4375 16.1875 16.1914 16.1875 15.875V14.1875ZM4.76172 12.5L6.76562 9.75781C6.94141 9.54688 7.1875 9.44141 7.43359 9.44141C7.71484 9.44141 7.96094 9.54688 8.13672 9.75781L8.69922 10.5664L10.668 7.54297C10.8438 7.33203 11.0898 7.15625 11.4062 7.15625C11.6875 7.15625 11.9336 7.33203 12.1094 7.54297L15.3438 12.5H16.1875V4.625C16.1875 4.34375 15.9062 4.0625 15.625 4.0625H4.375C4.05859 4.0625 3.8125 4.34375 3.8125 4.625V12.5H4.76172ZM17.875 12.5V13.3438V14.1875V15.875C17.875 17.1406 16.8555 18.125 15.625 18.125H4.375C3.10938 18.125 2.125 17.1406 2.125 15.875V14.1875V13.3438V12.5V4.625C2.125 3.39453 3.10938 2.375 4.375 2.375H15.625C16.8555 2.375 17.875 3.39453 17.875 4.625V12.5ZM7.1875 6.3125C7.1875 6.94531 6.66016 7.4375 6.0625 7.4375C5.42969 7.4375 4.9375 6.94531 4.9375 6.3125C4.9375 5.71484 5.42969 5.1875 6.0625 5.1875C6.66016 5.1875 7.1875 5.71484 7.1875 6.3125Z" fill="#6D7175"/>
</svg>
