 <svg xmlns="http://www.w3.org/2000/svg" width="24" height="24" viewBox="0 0 24 24">
    <g data-name="Group 4329" transform="translate(10924 -4501)">
        <rect id="Rectangle_2071" data-name="Rectangle 2071" width="24" height="24" transform="translate(-10924 4501)" fill="none" opacity="0"></rect>
        <path id="Path_5183" data-name="Path 5183" d="M15.883,36.321A6.424,6.424,0,0,0,14.83,32.75L5.7,41.866a6.473,6.473,0,0,0,3.6,1.077,6.378,6.378,0,0,0,2.56-.527,6.7,6.7,0,0,0,2.1-1.41,6.71,6.71,0,0,0,1.925-4.685ZM3.789,39.941l9.14-9.128a6.355,6.355,0,0,0-3.632-1.1,6.437,6.437,0,0,0-3.3.884,6.631,6.631,0,0,0-2.2,9.346Zm14.805-3.62a9.161,9.161,0,0,1-.738,3.632,9.4,9.4,0,0,1-1.979,2.978,9.289,9.289,0,0,1-2.966,1.985,9.211,9.211,0,0,1-7.227,0,9.289,9.289,0,0,1-2.966-1.985A9.4,9.4,0,0,1,.738,39.953a9.285,9.285,0,0,1,0-7.257,9.414,9.414,0,0,1,1.979-2.972,9.289,9.289,0,0,1,2.966-1.985,9.211,9.211,0,0,1,7.227,0,9.289,9.289,0,0,1,2.966,1.985A9.414,9.414,0,0,1,17.856,32.7,9.118,9.118,0,0,1,18.594,36.321Z" transform="translate(-10921.5 4477)" fill="currentColor"></path>
    </g>
</svg> 