<svg width="14" height="16" viewBox="0 0 14 16" fill="none" xmlns="http://www.w3.org/2000/svg">
<path d="M3.95508 1.40234C4.10156 1.08008 4.42383 0.875 4.77539 0.875H8.32031C8.67188 0.875 8.99414 1.08008 9.14062 1.40234L9.375 1.8125H12.1875C12.6855 1.8125 13.125 2.25195 13.125 2.75C13.125 3.27734 12.6855 3.6875 12.1875 3.6875H0.9375C0.410156 3.6875 0 3.27734 0 2.75C0 2.25195 0.410156 1.8125 0.9375 1.8125H3.75L3.95508 1.40234ZM0.908203 4.625H12.1875V14C12.1875 15.0547 11.3379 15.875 10.3125 15.875H2.7832C1.75781 15.875 0.908203 15.0547 0.908203 14V4.625ZM3.25195 6.96875V13.5312C3.25195 13.7949 3.48633 14 3.7207 14C3.98438 14 4.18945 13.7949 4.18945 13.5312V6.96875C4.18945 6.73438 3.98438 6.5 3.7207 6.5C3.48633 6.5 3.25195 6.73438 3.25195 6.96875ZM6.06445 6.96875V13.5312C6.06445 13.7949 6.29883 14 6.5332 14C6.79688 14 7.03125 13.7949 7.03125 13.5312V6.96875C7.03125 6.73438 6.79688 6.5 6.5332 6.5C6.29883 6.5 6.06445 6.73438 6.06445 6.96875ZM8.90625 6.96875V13.5312C8.90625 13.7949 9.11133 14 9.375 14C9.60938 14 9.84375 13.7949 9.84375 13.5312V6.96875C9.84375 6.73438 9.60938 6.5 9.375 6.5C9.11133 6.5 8.90625 6.73438 8.90625 6.96875Z" fill="currentColor"/>
</svg>
