<svg width="18" height="19" viewBox="0 0 18 19" fill="none" xmlns="http://www.w3.org/2000/svg">
<g clip-path="url(#clip0_373_6)">
<path d="M7.03125 4.74989C9.49219 4.74989 11.8477 3.80067 13.6055 2.04286L14.9414 0.706918C15.6445 0.00379291 16.875 0.49598 16.875 1.51551V6.57801C17.5078 6.89442 18 7.73817 18 8.68739C18 9.67176 17.5078 10.5155 16.875 10.8319V15.8944C16.875 16.9139 15.6445 17.4061 14.9414 16.703L13.6055 15.3671C11.918 13.6796 9.66797 12.6952 7.3125 12.66V16.2811C7.3125 17.371 6.39844 18.2499 5.34375 18.2499H4.21875C3.12891 18.2499 2.25 17.371 2.25 16.2811V12.6249C0.984375 12.6249 0 11.6405 0 10.3749V6.99989C0 5.76942 0.984375 4.74989 2.25 4.74989H7.03125ZM15.1875 2.85145L14.8008 3.23817C12.7969 5.24207 10.125 6.36707 7.3125 6.43739V10.9725C10.125 11.0077 12.7969 12.1679 14.8008 14.1718L15.1875 14.5585V2.85145ZM3.9375 16.2811C3.9375 16.4569 4.04297 16.5624 4.21875 16.5624H5.34375C5.48438 16.5624 5.625 16.4569 5.625 16.2811V12.6249H3.9375V16.2811ZM1.6875 6.99989V10.3749C1.6875 10.6913 1.93359 10.9374 2.25 10.9374H5.625V6.43739H2.25C1.93359 6.43739 1.6875 6.71864 1.6875 6.99989Z" fill="currentColor"/>
</g>
<defs>
<clipPath id="clip0_373_6">
<rect width="18" height="19" fill="white"/>
</clipPath>
</defs>
</svg>
