<svg xmlns="http://www.w3.org/2000/svg" width="32" height="32" viewBox="0 0 32 32" fill="none"><path d="M21.2422 5.48047C22.3164 4.36328 24.25 5.13672 24.25 6.68359V23.4844C24.25 25.0312 22.3164 25.8047 21.2422 24.6875L20.2539 23.6133C18.3633 21.6367 15.9141 20.3906 13.25 20.0469V24.3438C13.25 25.6758 12.1328 26.75 10.8438 26.75H10.1562C8.82422 26.75 7.75 25.6758 7.75 24.3438V19.875C6.20312 19.875 5 18.6719 5 17.125V13C5 11.4961 6.20312 10.25 7.75 10.25H11.1445L12.3906 10.207C15.3984 10.0352 18.1914 8.74609 20.2539 6.55469L21.2422 5.48047ZM22.875 6.68359C22.875 6.33984 22.4883 6.21094 22.2734 6.42578L21.2422 7.5C19.4375 9.39062 17.1172 10.7227 14.625 11.2812V18.8867C17.1172 19.4453 19.4375 20.7344 21.2422 22.668L22.2734 23.7422C22.4883 23.957 22.875 23.7852 22.875 23.4844V6.68359ZM13.25 18.6719V11.4961C12.9922 11.5391 12.7344 11.5391 12.4766 11.582L11.1875 11.625H7.75C6.97656 11.625 6.375 12.2695 6.375 13V17.125C6.375 17.8984 6.97656 18.5 7.75 18.5H11.1875L12.4766 18.5859C12.7344 18.5859 12.9922 18.6289 13.25 18.6719ZM9.125 19.875V24.3438C9.125 24.9453 9.55469 25.375 10.1562 25.375H10.8438C11.4023 25.375 11.875 24.9453 11.875 24.3438V19.918L11.1445 19.875H9.125ZM26.3125 13C26.6562 13 27 13.3438 27 13.6875V16.4375C27 16.8242 26.6562 17.125 26.3125 17.125C25.9258 17.125 25.625 16.8242 25.625 16.4375V13.6875C25.625 13.3438 25.9258 13 26.3125 13Z" fill="currentColor"></path></svg>