<svg id="Group_6556" data-name="Group 6556" xmlns="http://www.w3.org/2000/svg" width="24" height="24" viewBox="0 0 24 24">
    <g id="Group_6556" data-name="Group 6556">
        <rect id="Rectangle_2068" data-name="Rectangle 2068" width="24" height="24" fill="none" opacity="0" />
        <path id="Path_5637" data-name="Path 5637" d="M14.2,7.767A.712.712,0,0,0,15,8.939a4.583,4.583,0,1,0-6.37-6.371.713.713,0,1,0,1.172.81A3.156,3.156,0,1,1,14.2,7.767Zm-1.86-3.436L1.056,8.209a.714.714,0,0,0-.028,1.34l4.979,2.019,2.021,4.986a.714.714,0,0,0,1.337-.036l3.878-11.28a.714.714,0,0,0-.907-.907Z" transform="translate(3.29 3.137)" fill="currentColor" />
    </g>
</svg>