<svg xmlns="http://www.w3.org/2000/svg" width="16" height="13" viewBox="0 0 16 13" fill="none">
<path d="M6.92188 7.625C9.17188 7.625 11 9.45312 11 11.7031C11 12.1484 10.625 12.5 10.1797 12.5H1.29688C0.851562 12.5 0.5 12.1484 0.5 11.7031C0.5 9.45312 2.30469 7.625 4.55469 7.625H6.92188ZM5.75 6.5C4.08594 6.5 2.75 5.16406 2.75 3.5C2.75 1.85938 4.08594 0.5 5.75 0.5C7.39062 0.5 8.75 1.85938 8.75 3.5C8.75 5.16406 7.39062 6.5 5.75 6.5ZM15.3125 3.66406C15.5469 3.875 15.5469 4.22656 15.3359 4.46094L12.8984 7.08594C12.8047 7.20312 12.6406 7.25 12.5 7.25C12.3359 7.25 12.1953 7.20312 12.1016 7.08594L10.7891 5.77344C10.5547 5.5625 10.5547 5.21094 10.7891 5C11 4.76562 11.3516 4.76562 11.5625 5L12.4766 5.89062L14.5156 3.6875C14.7266 3.45312 15.0781 3.45312 15.3125 3.66406Z" fill="currentColor"/>
</svg>