<svg xmlns="http://www.w3.org/2000/svg" width="32" height="32" viewBox="0 0 32 32" fill="none"><path d="M5 8.875C5 7.37109 6.20312 6.125 7.75 6.125H24.25C25.7539 6.125 27 7.37109 27 8.875V22.625C27 24.1719 25.7539 25.375 24.25 25.375H7.75C6.20312 25.375 5 24.1719 5 22.625V8.875ZM11.875 10.25H25.625V8.875C25.625 8.14453 24.9805 7.5 24.25 7.5H11.875V10.25ZM10.5 7.5H7.75C6.97656 7.5 6.375 8.14453 6.375 8.875V10.25H10.5V7.5ZM6.375 11.625V22.625C6.375 23.3984 6.97656 24 7.75 24H24.25C24.9805 24 25.625 23.3984 25.625 22.625V11.625H6.375Z" fill="currentColor"></path></svg>