<svg width="665" height="39" viewBox="0 0 665 39" fill="none" xmlns="http://www.w3.org/2000/svg">
<g clip-path="url(#clip0_10730_24931)">
<path d="M111.197 32.7599V12.6079H102.818V32.7599H111.197Z" fill="#596677"/>
<path d="M66.8322 24.3289V12.6079H58.7102V21.6079C58.7824 22.9328 58.6958 24.2616 58.4522 25.5659C57.8862 27.4169 55.9332 28.2399 53.9272 28.2399C51.1502 28.2399 49.8652 27.1599 49.3522 25.4629C49.2113 24.8721 49.1249 24.2695 49.0942 23.6629C49.0432 22.9959 49.0942 22.2759 49.0942 21.5039V12.6109H40.8702V24.3829C40.815 25.476 40.9927 26.5682 41.3914 27.5874C41.7902 28.6067 42.4009 29.5295 43.1832 30.2949C45.6502 32.7109 49.8142 33.4299 53.6712 33.4299C58.3482 33.4299 61.9492 32.7619 64.5182 30.2439C65.3111 29.4864 65.929 28.5649 66.3287 27.5437C66.7284 26.5225 66.9002 25.4264 66.8322 24.3319V24.3289Z" fill="#596677"/>
<path d="M26.532 22.768H15.347L20.922 13.568L26.532 22.768ZM42.309 32.76L23.801 5H13.417L16.287 8.39299L0 32.76H9.357L12.147 28.185H29.79L32.639 32.76H42.309Z" fill="#596677"/>
<path d="M100.555 22.325C100.555 20.062 99.6294 17.44 96.7554 13.791L89.8154 5H80.1464L85.6464 11.169C86.2989 11.8712 87.0028 12.5237 87.7524 13.121C86.4082 12.4034 84.9062 12.0325 83.3824 12.042C80.141 11.9968 76.941 12.7751 74.0824 14.304C72.5388 15.0669 71.2393 16.2463 70.3306 17.7089C69.422 19.1716 68.9405 20.8591 68.9404 22.581C68.9542 23.85 69.2205 25.1036 69.7237 26.2687C70.2269 27.4337 70.957 28.487 71.8714 29.367C75.5714 33.067 82.3064 33.428 84.7714 33.428C88.4214 33.428 94.1284 32.604 97.3664 29.674C98.3936 28.7492 99.21 27.6144 99.76 26.3464C100.31 25.0784 100.582 23.7069 100.555 22.325ZM92.5364 22.581C92.4985 23.5614 92.184 24.511 91.6292 25.3202C91.0745 26.1294 90.3022 26.7651 89.4014 27.154C87.961 27.8495 86.3731 28.1848 84.7744 28.131C83.1579 28.1417 81.5595 27.7904 80.0964 27.103C79.2294 26.7153 78.4842 26.0989 77.9409 25.3199C77.3976 24.5409 77.0766 23.6286 77.0124 22.681C77.0124 20.471 78.7124 18.723 80.7124 17.849C81.9481 17.3268 83.278 17.0644 84.6194 17.078C86.0019 17.0603 87.3767 17.2868 88.6804 17.747C90.9944 18.724 92.5374 20.574 92.5374 22.579L92.5364 22.581Z" fill="#596677"/>
</g>
<g clip-path="url(#clip1_10730_24931)">
<path d="M176.937 10.0201L169.058 23.2961V32.2261C169.965 34.3751 172.258 34.6611 174.458 34.7571V35.9991H159.029V34.7571C161.229 34.6571 163.9 34.3271 164.616 32.8951V23.6781L156.593 10.1151C156.099 9.11301 155.328 8.2741 154.37 7.69839C153.413 7.12269 152.31 6.83446 151.193 6.86807V5.6261H164.612V6.86807C162.081 7.01107 161.269 7.48907 160.553 8.06207L168.003 20.9561L175.31 8.11008C174.546 7.53708 173.543 7.01007 171.01 6.86807V5.6261H182.471V6.86807C181.346 6.82182 180.231 7.09284 179.252 7.65018C178.274 8.20751 177.472 9.02872 176.937 10.0201ZM192.601 36.4291C191.69 36.5115 190.781 36.2478 190.056 35.6904C189.33 35.133 188.841 34.3228 188.685 33.4211C187.061 35.1401 184.96 36.4291 182.954 36.4291C180.375 36.4291 178.178 34.8531 178.178 32.1291C178.164 30.7889 178.509 29.4692 179.178 28.3081L188.678 24.8691V21.3421C188.678 19.1931 187.678 17.1421 185.526 17.1421C184.236 17.1421 182.995 18.7171 182.899 21.1531L178.599 21.8691V21.3921C180.032 17.0921 184.76 15.4221 187.051 15.4221C191.397 15.4221 192.973 17.7141 192.925 21.2481L192.782 31.2761C192.734 33.2341 193.782 33.7121 194.74 33.7121C195.703 33.5877 196.577 33.0903 197.176 32.3271V33.7121C196.135 34.9491 194.273 36.4291 192.601 36.4291ZM183.05 28.6451C182.826 29.4536 182.714 30.289 182.716 31.1281C182.716 32.5601 183.528 33.9931 185.104 33.9931C186.429 33.9713 187.694 33.4414 188.638 32.5131L188.686 26.0661C187.444 26.6421 184.387 27.9761 183.05 28.6421V28.6451ZM197.615 35.9991V34.8991C199.764 34.7551 200.385 34.2781 200.767 33.4661V8.73007C200.767 7.10707 200.528 6.43807 197.233 6.15207V5.19708L205.972 2.99707L206.259 3.80908L204.874 5.52808V33.4651C205.352 34.4201 206.259 34.7551 208.217 34.8981V35.9981L197.615 35.9991ZM219.678 36.3811C214.664 36.3811 210.796 32.4171 210.796 26.8811C210.796 20.1001 214.951 15.4671 220.825 15.4671C225.552 15.4671 228.179 18.1421 228.179 22.3921V23.2511L215.285 23.1511C215.173 23.958 215.125 24.7726 215.141 25.5871C215.141 30.4581 218.198 33.6571 222.257 33.6571C224.692 33.6571 225.934 32.7981 227.844 31.1741L228.56 32.2741C225.839 34.7571 223.594 36.3811 219.678 36.3811ZM220.108 16.9451C217.72 16.9451 216.049 18.8551 215.475 21.8631L223.88 21.7631C223.881 19.2371 222.305 16.9421 220.108 16.9421V16.9451Z" fill="#596677"/>
</g>
<g clip-path="url(#clip2_10730_24931)">
<path d="M326.05 0C294.308 0 268.562 8.641 268.562 19.221C268.562 29.801 294.308 38.443 326.05 38.443C357.792 38.443 383.538 29.8 383.538 19.221C383.538 8.642 357.792 0 326.05 0ZM283.55 26.628C284.079 26.275 284.079 25.394 284.079 25.217V12.168C284.094 11.9841 284.051 11.8 283.956 11.6417C283.861 11.4834 283.719 11.359 283.55 11.286H294.308C294.143 11.4092 294.01 11.569 293.918 11.7526C293.826 11.9362 293.779 12.1387 293.779 12.344V25.393C293.779 25.569 293.779 26.627 294.308 26.804L283.55 26.628ZM311.941 26.628C311.941 26.628 312.294 26.452 311.941 25.746L308.767 20.279V25.217C308.767 25.393 308.591 26.275 309.296 26.628H298.896C299.425 26.275 299.425 25.394 299.425 25.217V12.168C299.424 11.9627 299.377 11.7602 299.285 11.5766C299.193 11.393 299.06 11.2332 298.896 11.11H309.296C309.131 11.2332 308.998 11.393 308.906 11.5766C308.814 11.7602 308.767 11.9627 308.767 12.168V17.282L312.294 12.344C312.446 12.1747 312.53 11.9549 312.53 11.727C312.53 11.4991 312.446 11.2793 312.294 11.11H322.876C322.532 11.3504 322.234 11.6489 321.994 11.992L318.114 17.459L323.052 25.394C323.581 25.923 323.757 26.276 324.11 26.452C324.201 26.5526 324.327 26.6154 324.463 26.628H311.941ZM344.212 26.628H326.226C326.755 26.275 326.755 25.394 326.755 25.217V12.168C326.754 11.9627 326.707 11.7602 326.615 11.5766C326.523 11.393 326.39 11.2332 326.226 11.11H344.037V16.048C343.606 15.6348 343.045 15.3853 342.45 15.343H335.925V16.577H341.039C341.536 16.6294 342.036 16.5044 342.45 16.224V20.985C342.274 20.632 341.392 20.632 341.039 20.632H335.925V21.866H342.45C343.045 21.8237 343.606 21.5742 344.037 21.161V26.628H344.212ZM360.788 26.628C361.038 26.3343 361.164 25.9551 361.141 25.57L360.436 23.63H355.852L355.147 25.57C355.057 25.7414 355.025 25.9376 355.057 26.1286C355.089 26.3196 355.182 26.4949 355.323 26.628H345.977C346.328 26.2607 346.625 25.8452 346.859 25.394L351.797 12.345C352.15 11.463 351.621 11.111 351.621 11.111H366.433C366.281 11.2741 366.182 11.4798 366.151 11.7004C366.119 11.921 366.156 12.146 366.257 12.345L371.371 25.218C371.636 25.6966 371.996 26.1164 372.429 26.452H360.79L360.788 26.628Z" fill="#596677"/>
<path d="M357.968 17.105C357.968 17.105 357.968 17.634 357.792 17.81L356.557 20.632H359.202L357.968 17.811V17.105Z" fill="#596677"/>
</g>
<g clip-path="url(#clip3_10730_24931)">
<path fill-rule="evenodd" clip-rule="evenodd" d="M434.793 7.00003C437.668 7.00003 440.32 8.55901 439.957 12.446C439.527 17.054 437.043 19.621 433.137 19.631H429.729C429.238 19.631 429.001 20.031 428.873 20.852L428.215 25.046C428.115 25.679 427.791 25.992 427.315 25.992H424.142C423.636 25.992 423.459 25.669 423.572 24.945L426.195 8.13303C426.324 7.30603 426.64 6.99902 427.201 6.99902L434.793 7.00003ZM429.624 16H432.209C433.825 15.939 434.9 14.82 435.009 12.8C435.037 12.5144 435.002 12.2261 434.905 11.9556C434.809 11.6852 434.655 11.4393 434.453 11.2355C434.25 11.0317 434.006 10.875 433.736 10.7766C433.467 10.6781 433.179 10.6404 432.893 10.666L430.459 10.677L429.625 15.998L429.624 16ZM448.584 24.7C448.874 24.437 449.17 24.3 449.127 24.625L449.027 25.404C448.973 25.81 449.135 26.027 449.514 26.027H452.333C452.807 26.027 453.039 25.835 453.156 25.101L454.893 14.201C454.98 13.653 454.848 13.384 454.432 13.384H451.332C451.052 13.384 450.917 13.541 450.844 13.968L450.729 14.639C450.669 14.989 450.509 15.05 450.36 14.698C449.834 13.452 448.492 12.898 446.611 12.933C442.262 13.023 439.331 16.324 439.017 20.555C438.932 21.2883 439.003 22.0312 439.225 22.7352C439.447 23.4392 439.815 24.0883 440.305 24.64C440.796 25.1918 441.397 25.6337 442.07 25.9368C442.743 26.24 443.473 26.3975 444.211 26.399C445.019 26.45 445.829 26.3249 446.585 26.0325C447.34 25.74 448.023 25.2871 448.587 24.705L448.584 24.7ZM446.225 23.025C445.802 23.0416 445.381 22.9634 444.993 22.7959C444.604 22.6284 444.258 22.3761 443.98 22.0573C443.702 21.7386 443.498 21.3616 443.385 20.954C443.272 20.5464 443.251 20.1186 443.325 19.702C443.492 18.7845 443.97 17.9528 444.68 17.3474C445.389 16.7419 446.285 16.3999 447.218 16.379C447.641 16.3624 448.062 16.4407 448.45 16.6082C448.839 16.7756 449.185 17.028 449.463 17.3467C449.741 17.6655 449.944 18.0425 450.058 18.4501C450.171 18.8577 450.191 19.2854 450.118 19.702C449.951 20.6196 449.472 21.4514 448.763 22.0569C448.054 22.6624 447.157 23.0044 446.225 23.025ZM460.411 13.345H457.563C456.973 13.345 456.733 13.777 456.921 14.326L460.47 24.721L456.97 29.665C456.678 30.078 456.903 30.455 457.315 30.455H460.529C460.716 30.4766 460.906 30.4439 461.075 30.3607C461.244 30.2776 461.386 30.1475 461.484 29.986L472.4 14.326C472.736 13.843 472.578 13.339 472.027 13.338H468.989C468.468 13.338 468.258 13.544 467.959 13.978L463.405 20.584L461.379 13.966C461.319 13.7644 461.189 13.591 461.011 13.4777C460.834 13.3644 460.622 13.3187 460.414 13.349L460.411 13.345Z" fill="#596677"/>
<path fill-rule="evenodd" clip-rule="evenodd" d="M483.766 7.00003C486.642 7.00003 489.294 8.55901 488.931 12.446C488.501 17.054 486.017 19.621 482.111 19.631H478.704C478.213 19.631 477.977 20.031 477.848 20.852L477.19 25.046C477.09 25.679 476.766 25.992 476.29 25.992H473.117C472.611 25.992 472.434 25.669 472.547 24.945L475.17 8.13303C475.299 7.30603 475.615 6.99902 476.176 6.99902L483.766 7.00003ZM478.597 16H481.182C482.798 15.939 483.873 14.82 483.982 12.8C484.01 12.5145 483.975 12.2263 483.879 11.956C483.782 11.6857 483.628 11.4399 483.426 11.2362C483.224 11.0325 482.979 10.8759 482.71 10.7775C482.44 10.6791 482.152 10.6414 481.866 10.667L479.433 10.678L478.599 15.999L478.597 16ZM497.557 24.7C497.847 24.437 498.143 24.3 498.1 24.625L498 25.404C497.946 25.81 498.108 26.027 498.487 26.027H501.306C501.78 26.027 502.012 25.835 502.129 25.101L503.866 14.201C503.953 13.653 503.821 13.384 503.404 13.384H500.304C500.024 13.384 499.889 13.541 499.816 13.968L499.701 14.639C499.641 14.989 499.481 15.05 499.332 14.698C498.806 13.452 497.464 12.898 495.583 12.933C491.234 13.023 488.303 16.324 487.989 20.555C487.904 21.2883 487.975 22.0312 488.197 22.7352C488.419 23.4392 488.787 24.0883 489.278 24.64C489.768 25.1918 490.37 25.6337 491.043 25.9368C491.716 26.24 492.445 26.3975 493.183 26.399C493.992 26.45 494.802 26.3249 495.557 26.0325C496.313 25.74 496.996 25.2871 497.559 24.705L497.557 24.7ZM495.198 23.025C494.776 23.0416 494.355 22.9634 493.966 22.7959C493.578 22.6284 493.232 22.3761 492.953 22.0573C492.675 21.7386 492.472 21.3616 492.359 20.954C492.245 20.5464 492.225 20.1186 492.298 19.702C492.465 18.7845 492.944 17.9528 493.653 17.3474C494.363 16.7419 495.259 16.3999 496.191 16.379C496.614 16.3624 497.035 16.4407 497.424 16.6082C497.812 16.7756 498.158 17.028 498.436 17.3467C498.715 17.6655 498.918 18.0425 499.031 18.4501C499.144 18.8577 499.165 19.2854 499.091 19.702C498.925 20.6196 498.446 21.4514 497.737 22.0569C497.027 22.6624 496.131 23.0044 495.198 23.025ZM508.198 26.047H504.944C504.887 26.0503 504.829 26.0405 504.775 26.0183C504.722 25.9961 504.674 25.962 504.636 25.9188C504.597 25.8755 504.569 25.8241 504.553 25.7683C504.537 25.7126 504.534 25.654 504.544 25.597L507.405 7.48502C507.431 7.35963 507.498 7.24671 507.597 7.16489C507.695 7.08306 507.818 7.03725 507.946 7.03503H511.2C511.258 7.03174 511.316 7.04157 511.369 7.06378C511.423 7.08599 511.471 7.12002 511.509 7.1633C511.548 7.20658 511.576 7.258 511.592 7.31372C511.607 7.36944 511.61 7.42798 511.6 7.48502L508.739 25.597C508.715 25.7226 508.649 25.836 508.551 25.9186C508.453 26.0012 508.33 26.0479 508.202 26.051L508.198 26.047Z" fill="#596677"/>
</g>
<g clip-path="url(#clip4_10730_24931)">
<path fill-rule="evenodd" clip-rule="evenodd" d="M551.61 11.3398V27.8778H566.652V25.4718H554.317V11.3398H551.61Z" fill="#596677"/>
<path fill-rule="evenodd" clip-rule="evenodd" d="M586.799 23.1949C586.053 24.4145 585.002 25.418 583.749 26.1059C582.475 26.8027 581.047 27.1679 579.595 27.1679C578.143 27.1679 576.715 26.8027 575.441 26.1059C574.188 25.4177 573.137 24.4142 572.391 23.1949C571.659 21.9932 571.272 20.6131 571.272 19.2059C571.272 17.7987 571.659 16.4187 572.391 15.2169C573.136 13.997 574.188 12.9931 575.441 12.3049C576.714 11.6073 578.143 11.2416 579.595 11.2416C581.047 11.2416 582.476 11.6073 583.749 12.3049C585.002 12.9931 586.054 13.997 586.799 15.2169C587.531 16.4187 587.918 17.7987 587.918 19.2059C587.918 20.6131 587.531 21.9931 586.799 23.1949ZM589.14 14.0509C588.125 12.4843 586.72 11.2091 585.062 10.3509C583.35 9.46534 581.451 9.00317 579.523 9.00317C577.595 9.00317 575.696 9.46534 573.984 10.3509C572.327 11.2094 570.922 12.4846 569.908 14.0509C568.927 15.5685 568.405 17.337 568.405 19.1439C568.405 20.9509 568.927 22.7194 569.908 24.2369C570.923 25.8035 572.328 27.0787 573.986 27.9369C575.698 28.8226 577.597 29.2848 579.525 29.2848C581.453 29.2848 583.352 28.8226 585.064 27.9369C586.722 27.0788 588.127 25.8036 589.142 24.2369C590.123 22.7193 590.644 20.9508 590.644 19.1439C590.644 17.3371 590.123 15.5686 589.142 14.0509" fill="#596677"/>
<path fill-rule="evenodd" clip-rule="evenodd" d="M606.497 18.3559C606.786 18.0987 607.015 17.7804 607.167 17.424C607.319 17.0676 607.39 16.682 607.375 16.2949C607.356 15.9054 607.258 15.5239 607.088 15.1732C606.917 14.8226 606.677 14.5102 606.383 14.2549C605.807 13.8522 605.106 13.6695 604.408 13.7399H596.135V18.8529H604.408C605.141 18.938 605.881 18.7609 606.497 18.3529M609.525 18.4659C609.066 19.3795 608.312 20.1113 607.385 20.5429C606.849 20.864 606.236 21.0331 605.612 21.0319L610.876 27.8749H607.868L602.776 21.2579H596.135V27.8749H593.428V11.3399H604.258C605.368 11.3179 606.465 11.5821 607.443 12.1069C608.481 12.6544 609.275 13.5726 609.668 14.6789C610.067 15.9213 610.017 17.2648 609.526 18.4739" fill="#596677"/>
<path fill-rule="evenodd" clip-rule="evenodd" d="M625.165 18.4038V20.6598H615.99V25.4718H628.324V27.8788H613.281V11.3398H628.324V13.7398H615.99V18.4018L625.165 18.4038Z" fill="#596677"/>
<path fill-rule="evenodd" clip-rule="evenodd" d="M638.553 13.9948L634.7 21.5628H642.407L638.553 13.9948ZM633.628 23.6688L631.484 27.8798H628.776L637.199 11.3408H639.906L648.33 27.8838H645.623L643.479 23.6728L633.628 23.6688Z" fill="#596677"/>
<path fill-rule="evenodd" clip-rule="evenodd" d="M664.727 25.4728V27.8798H649.685V11.3408H652.392V25.4728H664.727Z" fill="#596677"/>
</g>
<defs>
<clipPath id="clip0_10730_24931">
<rect width="111.197" height="28.428" fill="white" transform="translate(0 5)"/>
</clipPath>
<clipPath id="clip1_10730_24931">
<rect width="77.364" height="33.429" fill="white" transform="translate(151.197 3)"/>
</clipPath>
<clipPath id="clip2_10730_24931">
<rect width="114.976" height="38.443" fill="white" transform="translate(268.562)"/>
</clipPath>
<clipPath id="clip3_10730_24931">
<rect width="88.073" height="23.459" fill="white" transform="translate(423.537 7)"/>
</clipPath>
<clipPath id="clip4_10730_24931">
<rect width="113.117" height="20.289" fill="white" transform="translate(551.61 9)"/>
</clipPath>
</defs>
</svg>
